<?xml version="1.0" encoding="UTF-8" standalone="no"?>
<!-- Created with Inkscape (http://www.inkscape.org/) -->

<svg
   xmlns:dc="http://purl.org/dc/elements/1.1/"
   xmlns:cc="http://creativecommons.org/ns#"
   xmlns:rdf="http://www.w3.org/1999/02/22-rdf-syntax-ns#"
   xmlns:svg="http://www.w3.org/2000/svg"
   xmlns="http://www.w3.org/2000/svg"
   xmlns:sodipodi="http://sodipodi.sourceforge.net/DTD/sodipodi-0.dtd"
   xmlns:inkscape="http://www.inkscape.org/namespaces/inkscape"
   width="57.235081mm"
   height="16.228361mm"
   viewBox="0 0 57.23508 16.228362"
   version="1.1"
   id="svg8"
   inkscape:version="0.92.4 (5da689c313, 2019-01-14)"
   sodipodi:docname="logo.svg">
  <defs
     id="defs2" />
  <sodipodi:namedview
     id="base"
     pagecolor="#ffffff"
     bordercolor="#666666"
     borderopacity="1.0"
     inkscape:pageopacity="0.0"
     inkscape:pageshadow="2"
     inkscape:zoom="2.8"
     inkscape:cx="-33.412777"
     inkscape:cy="1.1027038"
     inkscape:document-units="mm"
     inkscape:current-layer="layer1"
     showgrid="false"
     fit-margin-top="0"
     fit-margin-left="0"
     fit-margin-right="0"
     fit-margin-bottom="0"
     inkscape:window-width="1920"
     inkscape:window-height="910"
     inkscape:window-x="-8"
     inkscape:window-y="-8"
     inkscape:window-maximized="1" />
  <metadata
     id="metadata5">
    <rdf:RDF>
      <cc:Work
         rdf:about="">
        <dc:format>image/svg+xml</dc:format>
        <dc:type
           rdf:resource="http://purl.org/dc/dcmitype/StillImage" />
        <dc:title />
      </cc:Work>
    </rdf:RDF>
  </metadata>
  <g
     inkscape:label="Layer 1"
     inkscape:groupmode="layer"
     id="layer1"
     transform="translate(-34.017857,-227.52165)">
    <rect
       style="fill:#1a1a1a;fill-opacity:1;stroke:none;stroke-width:0.03380907"
       id="rect815"
       width="2.7047253"
       height="2.7047253"
       x="34.017857"
       y="227.52165" />
    <rect
       y="241.04529"
       x="44.160576"
       height="2.7047253"
       width="2.7047253"
       id="rect876"
       style="fill:#a05a2c;fill-opacity:1;stroke:none;stroke-width:0.03380907" />
    <rect
       y="241.04529"
       x="40.779671"
       height="2.7047253"
       width="2.7047253"
       id="rect878"
       style="fill:#a05a2c;fill-opacity:1;stroke:none;stroke-width:0.03380907" />
    <rect
       y="241.04529"
       x="47.541481"
       height="2.7047253"
       width="2.7047253"
       id="rect880"
       style="fill:#1a1a1a;fill-opacity:1;stroke:none;stroke-width:0.03380907" />
    <rect
       style="fill:#1a1a1a;fill-opacity:1;stroke:none;stroke-width:0.03380907"
       id="rect886"
       width="2.7047253"
       height="2.7047253"
       x="37.398766"
       y="230.90256" />
    <rect
       style="fill:#a05a2c;fill-opacity:1;stroke:none;stroke-width:0.03380907"
       id="rect888"
       width="2.7047253"
       height="2.7047253"
       x="44.160576"
       y="230.90256" />
    <rect
       style="fill:#a05a2c;fill-opacity:1;stroke:none;stroke-width:0.03380907"
       id="rect890"
       width="2.7047253"
       height="2.7047253"
       x="40.779671"
       y="230.90256" />
    <rect
       y="234.28346"
       x="37.398766"
       height="2.7047253"
       width="2.7047253"
       id="rect874-5"
       style="fill:#a05a2c;fill-opacity:1;stroke:none;stroke-width:0.03380907" />
    <rect
       y="234.28346"
       x="44.160576"
       height="2.7047253"
       width="2.7047253"
       id="rect876-4"
       style="fill:#a05a2c;fill-opacity:1;stroke:none;stroke-width:0.03380907" />
    <rect
       y="234.28346"
       x="40.779671"
       height="2.7047253"
       width="2.7047253"
       id="rect878-3"
       style="fill:#1a1a1a;fill-opacity:1;stroke:none;stroke-width:0.03380907" />
    <rect
       y="234.28346"
       x="47.541481"
       height="2.7047253"
       width="2.7047253"
       id="rect880-8"
       style="fill:#a05a2c;fill-opacity:1;stroke:none;stroke-width:0.03380907" />
    <rect
       y="237.66437"
       x="37.398766"
       height="2.7047253"
       width="2.7047253"
       id="rect874-58"
       style="fill:#a05a2c;fill-opacity:1;stroke:none;stroke-width:0.03380907" />
    <rect
       y="237.66437"
       x="44.160576"
       height="2.7047253"
       width="2.7047253"
       id="rect876-5"
       style="fill:#1a1a1a;fill-opacity:1;stroke:none;stroke-width:0.03380907" />
    <rect
       y="237.66437"
       x="40.779671"
       height="2.7047253"
       width="2.7047253"
       id="rect878-4"
       style="fill:#a05a2c;fill-opacity:1;stroke:none;stroke-width:0.03380907" />
    <rect
       y="237.66437"
       x="47.541481"
       height="2.7047253"
       width="2.7047253"
       id="rect880-1"
       style="fill:#a05a2c;fill-opacity:1;stroke:none;stroke-width:0.03380907" />
    <g
       aria-label="Bach"
       style="font-style:normal;font-variant:normal;font-weight:normal;font-stretch:normal;font-size:19.89443016px;line-height:1.25;font-family:'Vladimir Script';-inkscape-font-specification:'Vladimir Script';letter-spacing:0px;word-spacing:0px;fill:#000000;fill-opacity:1;stroke:none;stroke-width:0.49736074"
       id="text858">
      <path
         d="m 62.576979,235.31041 q 0.271994,0.01 1.09769,0.21371 2.525661,0.63141 2.525661,2.37023 0,1.78739 -2.554803,3.35136 -2.545088,1.56397 -4.993036,1.56397 -1.253115,0 -2.030242,-0.48571 -0.922837,-0.58284 -0.922837,-1.76796 0,-0.44685 0.106855,-0.85484 l -1.194832,1.43769 q -0.971407,1.14626 -1.185117,1.14626 -0.174853,0 -0.359421,-0.12629 -0.174853,-0.13599 -0.174853,-0.31085 0,-0.53427 2.243952,-2.96279 2.496517,-2.71023 2.768512,-3.19593 l -0.16514,-0.41771 q 0,-0.45656 0.922838,-0.35942 l 4.701613,-4.88618 q -3.57478,0.40799 -5.381599,1.30169 -0.485704,0.24285 -0.660557,0.24285 -0.446848,0 -0.446848,-0.39828 0,-0.64113 2.409092,-1.34054 2.418805,-0.69941 5.129032,-0.84513 0.582845,-0.52456 0.815983,-0.52456 0.184567,0 0.271994,0.18457 0.08743,0.17486 0.03886,0.34971 4.458762,0 4.458762,2.57423 0,1.48625 -2.273094,2.43823 -0.981122,0.41771 -3.555353,1.00055 -0.52456,0.14571 -1.593108,0.30114 z m 2.117669,-5.40103 -4.604473,4.97361 q 2.991936,-0.38856 5.381599,-1.07826 4.031342,-1.15598 4.031342,-2.63252 0,-1.28226 -3.487354,-1.28226 z m -5.274744,5.77016 q -3.293073,3.24451 -3.293073,4.77933 0,0.72856 0.777127,1.09769 0.592558,0.27199 1.418255,0.27199 2.457661,0 4.808468,-1.45711 2.350807,-1.46682 2.350807,-2.83651 0,-1.05883 -2.049671,-1.58339 -1.398827,-0.35942 -2.933651,-0.35942 -0.582844,0 -1.078262,0.0874 z"
         style="stroke-width:0.49736074"
         id="path3757" />
      <path
         d="m 67.851723,240.25487 q -2.593659,2.03996 -3.574781,2.03996 -0.116569,0 -0.116569,-0.12628 0,-0.17486 0.233138,-0.21371 0.913124,-0.14571 2.52566,-1.40854 l 1.253116,-0.98113 2.010814,-1.60282 q 1.379399,-0.95198 2.360521,-0.95198 0.728556,0 0.815983,0.72856 0.378849,-0.35942 0.52456,-0.35942 0.320564,0 0.320564,0.26228 0,0.33999 -1.495968,2.07881 -1.486253,1.73882 -1.486253,2.03024 0,0.204 0.320564,0.21371 0.320565,0.01 0.320565,0.16514 0,0.19428 -0.660558,0.19428 -0.650843,0 -0.650843,-0.57313 0,-0.45656 0.52456,-1.30168 l -1.204545,1.01997 q -0.883981,0.66056 -1.408541,0.66056 -0.835411,0 -0.835411,-0.84512 0,-0.46628 0.223424,-1.0297 z m 4.827896,-2.84622 q -0.57313,0 -2.370235,1.70968 -1.797104,1.70967 -1.797104,2.28281 0,0.26228 0.252566,0.26228 0.553702,0 2.370235,-1.67083 1.826246,-1.68053 1.826246,-2.26338 0,-0.32056 -0.281708,-0.32056 z"
         style="stroke-width:0.49736074"
         id="path3759" />
      <path
         d="m 76.128117,239.5846 -2.030242,1.59311 q -1.573681,1.11712 -2.399377,1.11712 -0.116569,0 -0.116569,-0.11657 0,-0.17485 0.233138,-0.22342 0.903409,-0.17486 2.447947,-1.35026 l 2.700514,-2.15652 q 2.214809,-1.81654 3.409641,-1.81654 0.631415,0 0.631415,0.48571 0.21371,0 0.21371,0.19428 0,0.16514 -0.242852,0.17485 -0.194282,0.6897 -0.728556,1.36969 -0.641129,0.81598 -1.233688,0.81598 -0.349707,0 -0.349707,-0.32057 0,-0.45656 0.757698,-1.18511 0.670272,-0.65085 1.204546,-0.87427 l 0.01943,-0.10685 q 0,-0.136 -0.135997,-0.136 -0.631415,0 -2.321665,1.73882 -1.680535,1.73882 -1.680535,2.42852 0,0.43713 0.369135,0.61198 0.184568,0.0874 0.6897,0.136 0.369134,0.0389 0.369134,0.16514 0,0.19428 -0.679985,0.19428 -1.515396,0 -1.515396,-1.3794 0,-0.52456 0.388563,-1.35997 z m 4.332479,-1.8651 q -0.281709,0.12628 -0.796555,0.64113 -0.553702,0.54399 -0.553702,0.7577 l 0.07771,0.0777 q 0.262281,0 0.728556,-0.60227 0.398277,-0.51485 0.543989,-0.87427 z"
         style="stroke-width:0.49736074"
         id="path3761" />
      <path
         d="m 83.559387,240.07031 q 3.516496,-3.12794 4.701613,-3.12794 0.52456,0 0.52456,0.55371 0,0.59255 -1.670821,2.25366 -1.661107,1.66111 -1.661107,1.95253 0,0.272 0.534274,0.272 0.135997,0 0.135997,0.15542 0,0.18457 -0.47599,0.18457 -0.845124,0 -0.845124,-0.70913 0,-0.81598 1.301686,-2.14681 1.593109,-1.63197 1.719392,-1.85539 0.0097,-0.11657 -0.116569,-0.11657 -0.534275,0 -2.719942,1.85539 -1.631965,1.3794 -2.622801,2.37024 -0.398277,0.39827 -0.650843,0.58284 -0.145711,0 -0.281708,-0.18457 -0.126283,-0.18456 -0.126283,-0.33999 0,-0.22342 1.330828,-1.91367 l 1.544539,-1.94282 q -0.942266,0.88398 -2.350807,1.99139 l -1.865103,1.42797 q -1.408541,0.96169 -2.166239,0.96169 -0.116569,0 -0.116569,-0.11657 0,-0.17485 0.194281,-0.22342 0.806269,-0.204 1.418256,-0.58285 1.136547,-0.69941 3.409641,-2.6228 l 1.962243,-1.66111 q 0.621701,-0.52456 3.448498,-3.83706 2.545088,-2.98222 2.78794,-2.98222 0.349707,0 0.349707,0.43714 0,0.30113 -1.95253,2.60337 z"
         style="stroke-width:0.49736074"
         id="path3763" />
    </g>
  </g>
</svg>
